<svg width="31" height="31" viewBox="0 0 31 31" fill="none" xmlns="http://www.w3.org/2000/svg">
<circle cx="15.5" cy="15.5" r="15.5" fill="white"/>
<path d="M7.89997 9.04C7.79927 9.03858 7.69928 9.05718 7.60582 9.09474C7.51237 9.13229 7.42731 9.18805 7.35559 9.25876C7.28386 9.32947 7.22691 9.41374 7.18804 9.50665C7.14917 9.59957 7.12915 9.69928 7.12915 9.8C7.12915 9.90072 7.14917 10.0004 7.18804 10.0933C7.22691 10.1863 7.28386 10.2705 7.35559 10.3412C7.42731 10.412 7.51237 10.4677 7.60582 10.5053C7.69928 10.5428 7.79927 10.5614 7.89997 10.56H23.1C23.2007 10.5614 23.3007 10.5428 23.3941 10.5053C23.4876 10.4677 23.5726 10.412 23.6444 10.3412C23.7161 10.2705 23.773 10.1863 23.8119 10.0933C23.8508 10.0004 23.8708 9.90072 23.8708 9.8C23.8708 9.69928 23.8508 9.59957 23.8119 9.50665C23.773 9.41374 23.7161 9.32947 23.6444 9.25876C23.5726 9.18805 23.4876 9.13229 23.3941 9.09474C23.3007 9.05718 23.2007 9.03858 23.1 9.04H7.89997ZM7.89997 14.74C7.79927 14.7386 7.69928 14.7572 7.60582 14.7947C7.51237 14.8323 7.42731 14.888 7.35559 14.9588C7.28386 15.0295 7.22691 15.1137 7.18804 15.2067C7.14917 15.2996 7.12915 15.3993 7.12915 15.5C7.12915 15.6007 7.14917 15.7004 7.18804 15.7934C7.22691 15.8863 7.28386 15.9705 7.35559 16.0412C7.42731 16.112 7.51237 16.1677 7.60582 16.2053C7.69928 16.2428 7.79927 16.2614 7.89997 16.26H23.1C23.2007 16.2614 23.3007 16.2428 23.3941 16.2053C23.4876 16.1677 23.5726 16.112 23.6444 16.0412C23.7161 15.9705 23.773 15.8863 23.8119 15.7934C23.8508 15.7004 23.8708 15.6007 23.8708 15.5C23.8708 15.3993 23.8508 15.2996 23.8119 15.2067C23.773 15.1137 23.7161 15.0295 23.6444 14.9588C23.5726 14.888 23.4876 14.8323 23.3941 14.7947C23.3007 14.7572 23.2007 14.7386 23.1 14.74H7.89997ZM7.89997 20.44C7.79927 20.4386 7.69928 20.4572 7.60582 20.4947C7.51237 20.5323 7.42731 20.588 7.35559 20.6588C7.28386 20.7295 7.22691 20.8137 7.18804 20.9067C7.14917 20.9996 7.12915 21.0993 7.12915 21.2C7.12915 21.3007 7.14917 21.4004 7.18804 21.4933C7.22691 21.5863 7.28386 21.6705 7.35559 21.7412C7.42731 21.812 7.51237 21.8677 7.60582 21.9053C7.69928 21.9428 7.79927 21.9614 7.89997 21.96H23.1C23.2007 21.9614 23.3007 21.9428 23.3941 21.9053C23.4876 21.8677 23.5726 21.812 23.6444 21.7412C23.7161 21.6705 23.773 21.5863 23.8119 21.4933C23.8508 21.4004 23.8708 21.3007 23.8708 21.2C23.8708 21.0993 23.8508 20.9996 23.8119 20.9067C23.773 20.8137 23.7161 20.7295 23.6444 20.6588C23.5726 20.588 23.4876 20.5323 23.3941 20.4947C23.3007 20.4572 23.2007 20.4386 23.1 20.44H7.89997Z" fill="black"/>
</svg>
