<svg width="1600" height="600" viewBox="0 0 1600 600" fill="none" xmlns="http://www.w3.org/2000/svg">
<path d="M166.67 259.688V84.7993H282.826V100.743H184.637V259.688H166.67ZM182.589 185.503V169.559H272.266V185.503H182.589Z" fill="white" fill-opacity="0.3"/>
<path d="M319.916 259.687V84.7988H337.883V243.744H432.762V259.687H319.916Z" fill="white" fill-opacity="0.3"/>
<path d="M452.325 259.688L529.868 84.7993H547.52L624.905 259.688H605.992L534.911 95.5367H542.161L470.923 259.688H452.325ZM482.901 212.997L488.102 198.03H586.764L591.965 212.997H482.901Z" fill="white" fill-opacity="0.3"/>
<path d="M694.412 259.688V100.743H634.836V84.7993H771.955V100.743H712.379V259.688H694.412Z" fill="white" fill-opacity="0.3"/>
<path d="M871.614 261.152C858.888 261.152 847.107 258.996 836.311 254.645C825.475 250.211 816.058 243.989 808.099 235.936C800.219 227.923 794.072 218.528 789.659 207.791C785.246 196.972 783.04 185.096 783.04 172.162C783.04 159.391 785.246 147.556 789.659 136.696C794.072 125.878 800.258 116.482 808.257 108.551C816.216 100.539 825.633 94.357 836.468 90.0051C847.264 85.5719 859.085 83.335 871.93 83.335C884.105 83.335 895.61 85.4499 906.445 89.6798C917.242 93.9096 926.383 100.254 933.869 108.714L922.521 120.428C915.587 113.188 907.903 107.901 899.511 104.647C891.079 101.393 882.056 99.7664 872.402 99.7664C862.197 99.7664 852.741 101.556 844.033 105.135C835.286 108.714 827.682 113.839 821.18 120.428C814.758 126.935 809.714 134.581 806.05 143.367C802.465 152.152 800.691 161.75 800.691 172.162C800.691 182.696 802.465 192.335 806.05 201.12C809.714 209.824 814.758 217.471 821.18 224.059C827.682 230.689 835.286 235.773 844.033 239.352C852.741 242.931 862.197 244.721 872.402 244.721C882.056 244.721 891.079 243.053 899.511 239.677C907.903 236.342 915.587 231.014 922.521 223.734L933.869 235.447C926.383 243.907 917.242 250.333 906.445 254.645C895.61 258.996 883.987 261.152 871.614 261.152Z" fill="white" fill-opacity="0.3"/>
<path d="M1093.71 259.688V84.7993H1111.36V259.688H1093.71ZM969.67 259.688V84.7993H987.637V259.688H969.67ZM985.589 178.995V162.726H1095.28V178.995H985.589Z" fill="white" fill-opacity="0.3"/>
<path d="M1166.49 259.688V84.7993H1282.64V100.743H1184.45V243.745H1286.27V259.688H1166.49ZM1182.4 178.67V163.052H1272.08V178.67H1182.4Z" fill="white" fill-opacity="0.3"/>
<path d="M1328.44 259.688V84.7993H1391.95C1413.38 84.7993 1430.25 90.1273 1442.54 100.743C1454.91 111.277 1461.14 125.918 1461.14 144.668C1461.14 157.032 1458.34 167.688 1452.79 176.555C1447.19 185.462 1439.23 192.295 1428.83 197.053C1418.51 201.853 1406.21 204.212 1391.95 204.212H1338.36L1346.4 195.752V259.688H1328.44ZM1444.12 259.688L1400.62 196.24H1420L1463.82 259.688H1444.12ZM1346.4 197.216L1338.36 188.431H1391.32C1408.34 188.431 1421.19 184.649 1429.93 177.043C1438.76 169.356 1443.17 158.578 1443.17 144.668C1443.17 130.677 1438.76 119.899 1429.93 112.293C1421.19 104.606 1408.34 100.743 1391.32 100.743H1338.36L1346.4 91.9576V197.216Z" fill="white" fill-opacity="0.3"/>
</svg>
