<svg width="168" height="23" viewBox="0 0 168 23" fill="none" xmlns="http://www.w3.org/2000/svg">
<path d="M0 22.8195V0.189484H15.0187V2.2525H2.32311V22.8195H0ZM2.05819 13.2202V11.1571H13.6533V13.2202H2.05819Z" fill="white"/>
<path d="M19.8145 22.8194V0.189453H22.1376V20.7564H34.4053V22.8194H19.8145Z" fill="white"/>
<path d="M36.9348 22.8195L46.9609 0.189484H49.2433L59.249 22.8195H56.8036L47.613 1.57886H48.5504L39.3394 22.8195H36.9348ZM40.8882 16.7778L41.5607 14.8411H54.3175L54.9899 16.7778H40.8882Z" fill="white"/>
<path d="M68.236 22.8195V2.2525H60.533V0.189484H78.2622V2.2525H70.5591V22.8195H68.236Z" fill="white"/>
<path d="M91.1481 23.0089C89.5026 23.0089 87.9793 22.73 86.5834 22.1669C85.1824 21.5932 83.9648 20.788 82.9357 19.746C81.9168 18.7092 81.122 17.4935 80.5514 16.1041C79.9809 14.7042 79.6956 13.1675 79.6956 11.4939C79.6956 9.84142 79.9809 8.30995 80.5514 6.90478C81.122 5.50488 81.9219 4.28917 82.9561 3.26293C83.9852 2.22616 85.2028 1.42622 86.6038 0.863098C87.9997 0.289454 89.5281 0 91.1889 0C92.7631 0 94.2507 0.273665 95.6517 0.820995C97.0476 1.36833 98.2296 2.18932 99.1975 3.28398L97.7303 4.79966C96.8337 3.86289 95.8402 3.17873 94.7551 2.7577C93.6648 2.33668 92.4982 2.12617 91.25 2.12617C89.9305 2.12617 88.7078 2.35773 87.5819 2.82086C86.4509 3.28398 85.4677 3.94709 84.6271 4.79966C83.7967 5.64171 83.1446 6.63112 82.6708 7.76788C82.2072 8.90464 81.9779 10.1467 81.9779 11.4939C81.9779 12.857 82.2072 14.1043 82.6708 15.241C83.1446 16.3673 83.7967 17.3567 84.6271 18.2093C85.4677 19.0671 86.4509 19.7249 87.5819 20.1881C88.7078 20.6512 89.9305 20.8827 91.25 20.8827C92.4982 20.8827 93.6648 20.667 94.7551 20.2302C95.8402 19.7986 96.8337 19.1092 97.7303 18.1672L99.1975 19.6828C98.2296 20.7775 97.0476 21.609 95.6517 22.1669C94.2507 22.73 92.7478 23.0089 91.1481 23.0089Z" fill="white"/>
<path d="M119.864 22.8195V0.189484H122.147V22.8195H119.864ZM103.827 22.8195V0.189484H106.15V22.8195H103.827ZM105.885 12.3781V10.273H120.068V12.3781H105.885Z" fill="white"/>
<path d="M129.275 22.8195V0.189484H144.293V2.2525H131.598V20.7565H144.762V22.8195H129.275ZM131.333 12.336V10.3151H142.928V12.336H131.333Z" fill="white"/>
<path d="M150.214 22.8195V0.189484H158.426C161.198 0.189484 163.378 0.878909 164.968 2.2525C166.568 3.61556 167.372 5.51016 167.372 7.93631C167.372 9.5362 167.011 10.915 166.292 12.0623C165.569 13.2149 164.54 14.099 163.195 14.7148C161.86 15.3358 160.271 15.641 158.426 15.641H151.498L152.537 14.5464V22.8195H150.214ZM165.172 22.8195L159.547 14.6095H162.054L167.719 22.8195H165.172ZM152.537 14.7358L151.498 13.5991H158.345C160.546 13.5991 162.207 13.1096 163.338 12.1255C164.479 11.1308 165.049 9.73618 165.049 7.93631C165.049 6.12591 164.479 4.73127 163.338 3.74713C162.207 2.75246 160.546 2.2525 158.345 2.2525H151.498L152.537 1.11573V14.7358Z" fill="white"/>
</svg>
