<svg width="31" height="31" viewBox="0 0 31 31" fill="none" xmlns="http://www.w3.org/2000/svg">
<g clip-path="url(#clip0_5_113)">
<path d="M31 15.1012C31 23.4408 24.1868 30.2014 15.7805 30.2014C13.1129 30.2014 10.6069 29.5191 8.42551 28.3243L0 31L2.7465 22.8959C1.36163 20.6215 0.564059 17.9508 0.564059 15.1002C0.56507 6.76062 7.37623 0 15.7825 0C24.1878 0.00202172 31 6.76163 31 15.1012ZM15.7795 2.40787C8.72472 2.40787 2.98608 8.10304 2.98608 15.1042C2.98608 17.8821 3.89181 20.4537 5.42326 22.5462L3.8261 27.2598L8.74089 25.698C10.7626 27.0243 13.1816 27.7966 15.7795 27.7966C22.8343 27.7966 28.5749 22.1024 28.5749 15.1012C28.577 8.10304 22.8353 2.40787 15.7795 2.40787ZM23.4661 18.5796C23.371 18.4269 23.1224 18.3339 22.7504 18.1479C22.3794 17.9619 20.5427 17.0673 20.202 16.946C19.8583 16.8217 19.6096 16.759 19.361 17.13C19.1153 17.501 18.3996 18.3339 18.1803 18.5826C17.963 18.8303 17.7456 18.8616 17.3726 18.6786C16.9996 18.4906 15.7967 18.1025 14.3714 16.8419C13.2625 15.8594 12.5134 14.6494 12.2971 14.2784C12.0777 13.9084 12.2749 13.7083 12.4598 13.5243C12.6266 13.3575 12.8328 13.0916 13.0199 12.8743C13.2069 12.659 13.2685 12.5063 13.3929 12.2587C13.5152 12.011 13.4535 11.7957 13.3615 11.6087C13.2685 11.4227 12.5235 9.60316 12.2112 8.8622C11.9008 8.12225 11.5905 8.24456 11.3722 8.24456C11.1548 8.24456 10.9062 8.21424 10.6575 8.21424C10.4088 8.21424 10.0045 8.3042 9.66381 8.67519C9.32315 9.04617 8.35879 9.94078 8.35879 11.7623C8.35879 13.5859 9.69413 15.3438 9.88114 15.5905C10.0692 15.8361 12.4629 19.6966 16.2546 21.1785C20.0484 22.6594 20.0484 22.1651 20.7317 22.1024C21.4171 22.0397 22.9394 21.2078 23.2487 20.3445C23.5601 19.4772 23.5601 18.7342 23.4661 18.5796Z" fill="white"/>
</g>
<defs>
<clipPath id="clip0_5_113">
<rect width="31" height="31" fill="white"/>
</clipPath>
</defs>
</svg>
